PathFileType	4	(X/Y/Z)	path1_13_0-574.trc
DataRate	CameraRate	NumFrames	NumMarkers	Units	OrigDataRate	OrigDataStartFrame	OrigNumFrames
30	30	5	22	m	30	358	574
Frame#	Time	Hip			RHip			RKnee			RAnkle			RBigToe			RSmallToe			RHeel			LHip			LKnee			LAnkle			LBigToe			LSmallToe			LHeel			Neck			Head			Nose			RShoulder			RElbow			RWrist			LShoulder			LElbow			LWrist		
		X1	Y1	Z1	X2	Y2	Z2	X3	Y3	Z3	X4	Y4	Z4	X5	Y5	Z5	X6	Y6	Z6	X7	Y7	Z7	X8	Y8	Z8	X9	Y9	Z9	X10	Y10	Z10	X11	Y11	Z11	X12	Y12	Z12	X13	Y13	Z13	X14	Y14	Z14	X15	Y15	Z15	X16	Y16	Z16	X17	Y17	Z17	X18	Y18	Z18	X19	Y19	Z19	X20	Y20	Z20	X21	Y21	Z21	X22	Y22	Z22
359	11.966666666666669	-2.4458648611287366	0.8287678192189769	-0.6174213028238121	-2.4437926557959955	0.8214437908889228	-0.5302712624725108	-2.274032850318042	0.5261656988515614	-0.5241650578456447	-2.3619629333962187	0.14979121880562637	-0.5060425523616352	-2.207475674855462	0.05599541043672725	-0.4985716371217712	-2.249530842037754	0.048899186067069174	-0.4351458129192791	-2.4343228053549675	0.07095694845923772	-0.5181070208972867	-2.43970152969922	0.8072289190044735	-0.7007294476489405	-2.4831088315976633	0.45394487639586284	-0.7102718290277474	-2.5672284362218636	0.09357186752776867	-0.6575259125310327	-2.394982739752735	0.01284639862030428	-0.6720726787150019	-2.4309643751442245	0.01650824200973787	-0.7251644132855334	-2.61033803100433	0.033006294050754136	-0.6534889853145338	-2.394712924517256	1.446116897557982	-0.6578054606597827	-2.3230047037503323	1.7059847030439532	-0.6199945503532591	-2.2546479574037526	1.5779657693890234	-0.6478592852515662	-2.462618137319056	1.3696351833845755	-0.48417898218655026	-2.518589650409535	1.090891453745235	-0.44644499833943524	-2.513243028056473	0.8471530063603169	-0.41933012074227705	-2.422964873243454	1.3421260508570976	-0.8528760284333168	-2.3712298373954273	1.0505071082867556	-0.8444436875307184	-2.272607424458203	0.8387162982669953	-0.8577050193132625
360	12.0	-2.4324779640518903	0.8281082564659474	-0.6178260992780236	-2.4320594692254187	0.821434597792802	-0.5313268080930521	-2.260279889346923	0.5289612169017025	-0.5290667148349855	-2.314846638092461	0.14794104333385968	-0.5090941867316164	-2.15405990792283	0.06649275011801556	-0.5016849887552979	-2.1966846282897983	0.05514177963039567	-0.438001814864731	-2.3812615327257625	0.06779267420521543	-0.5210078661445762	-2.4267123761167864	0.8073468094145364	-0.7004607337642013	-2.47881599852399	0.4528696369706582	-0.7133766209138334	-2.5662943891711647	0.09501115495020251	-0.663359969034466	-2.3945662185180403	0.015024701828086021	-0.6708921395586945	-2.4297235988933044	0.016687339265351504	-0.7237771053840119	-2.6087815193956043	0.03515372974069807	-0.655839634388723	-2.380084768921797	1.4428466010824332	-0.6581139850237667	-2.308919177252928	1.7071542763992311	-0.6238145856349663	-2.240861863757459	1.5756251774858714	-0.6477966410784791	-2.451316788305462	1.368167629184103	-0.4854360398825654	-2.511918795887152	1.093164054594708	-0.44702349938608865	-2.513197965240257	0.8486056940559641	-0.4223573301214761	-2.4028538462872873	1.3395512618515362	-0.8522049373962667	-2.3498403755554835	1.0499971032396105	-0.8417958704310797	-2.2428353943026487	0.8422237874975307	-0.8537164405493544
361	12.033333333333331	-2.418390188821268	0.8266234947858341	-0.6181864830395926	-2.4196041796665204	0.8204043340572417	-0.5323227635694615	-2.248005590597398	0.5294832494422813	-0.5333146888794686	-2.2667341564533166	0.1454570322830821	-0.5119988280647716	-2.0992747616106606	0.07749614009952449	-0.504627394162139	-2.141498874031149	0.06199817303891576	-0.4416252380853809	-2.325020412612104	0.06445938831569577	-0.5244798621510792	-2.412194532179807	0.8066858746685225	-0.7003529581578577	-2.4722212053774184	0.450355186870385	-0.7133133390050167	-2.5650477125864377	0.09733078024101027	-0.6692518079008047	-2.39287575115757	0.0179972072420797	-0.6698588273145768	-2.4280872181947646	0.016826985965620458	-0.7220984294377444	-2.607845424279334	0.037459609107857866	-0.6582165050795886	-2.364533401331022	1.4402616886810586	-0.6584368222445722	-2.2943133862095735	1.7092068725635041	-0.6271324396505336	-2.2256674561527796	1.5723655761883968	-0.6477779660321151	-2.4383789706250503	1.3659792530061063	-0.48630072164158245	-2.5033383864626475	1.0945594825566582	-0.44785576985171527	-2.5106369994851807	0.8493361941363068	-0.4250637760224476	-2.3797841485677838	1.3362149195878015	-0.849399673178476	-2.327660712390454	1.0491472738951528	-0.8395955419866616	-2.2132238623040763	0.8450962115997813	-0.8494087004107622
362	12.066666666666666	-2.4035302409825086	0.8243316129760566	-0.6185265335117367	-2.4062965263026634	0.8182557964577644	-0.5331726535814141	-2.2359547537902182	0.5274684216857385	-0.5364259163530309	-2.2197866499739534	0.14331240063739267	-0.5144771887401187	-2.0460504971744267	0.08710588660458674	-0.5076789709563176	-2.0875821687983716	0.06887622740975084	-0.4460040425029273	-2.269019455790663	0.061438967468178174	-0.5282229992965238	-2.396447498467204	0.8050519915190981	-0.7007029651383667	-2.4632067359287917	0.44635097265831114	-0.7103669230262833	-2.563527057311704	0.10014042393218509	-0.6732989108819392	-2.3902607927033297	0.021002871918468245	-0.6691867776789474	-2.426606964975849	0.016701576389242398	-0.7203404627840355	-2.608171482069612	0.03943499021833956	-0.6603291860019073	-2.3480887189308106	1.4385243648182962	-0.6586534315390201	-2.2785148613736825	1.7104088069442362	-0.6307537548036642	-2.209062326289118	1.5683897570378682	-0.6479095818310936	-2.423720351793217	1.3632078600456028	-0.4867264993698232	-2.4926667312260453	1.0948869929861742	-0.4488329359550848	-2.5051257708597583	0.8491424284412669	-0.42764749591095996	-2.354462514953654	1.3324167501910489	-0.8451432784174057	-2.304533237073877	1.0483574264251265	-0.8385738365372424	-2.1839563382803706	0.8470463690398561	-0.844860123533509
363	12.1	-2.387468240223841	0.8214484053175175	-0.6187238525711363	-2.391627984987528	0.8151957618764274	-0.5336580098308086	-2.223014684345487	0.5231596880405427	-0.5378005101259659	-2.176263778208407	0.14209994340313206	-0.5162290527061342	-1.997146704475703	0.0931619857148864	-0.5111117475757184	-2.0382404119924713	0.07471202939349188	-0.45075945017360436	-2.216800820290427	0.05871544344984702	-0.5317857948084996	-2.3796396738745016	0.8025417937446292	-0.7015063332220387	-2.45236900695634	0.44132377050087856	-0.7057952277552167	-2.561948852199893	0.10277532281428692	-0.6747154224957668	-2.3877782871095556	0.022912523259216316	-0.66867421805731	-2.4257270848302177	0.01627559873287319	-0.7186655886774594	-2.6099960129355453	0.04061323241048044	-0.6619299944050793	-2.3305496716797136	1.4373198438444328	-0.6585017047284352	-2.260938361593177	1.7096153114792418	-0.6346416752691213	-2.1909568541327697	1.5640482405982385	-0.6481039096198973	-2.407200740420772	1.360070336474981	-0.4866676045470286	-2.4798089784722612	1.0941599075317137	-0.44983144058131513	-2.4965261635179203	0.847988543037555	-0.43011662172035886	-2.327983547452994	1.3284926093733516	-0.8403047104637301	-2.2806361596875346	1.0479608758273102	-0.8390267043033557	-2.1553111624409826	0.8480435037042815	-0.8402040695354956
